<?xml version="1.0" encoding="UTF-8" standalone="no"?>
<svg
   version="1.1"
   viewBox="0 0 800 800"
   width="200"
   height="200"
   id="svg95"
   sodipodi:docname="2nL1iVtW0o9FhilHvskJyhWVLmN.svg"
   inkscape:version="1.1.2 (0a00cf5339, 2022-02-04)"
   xmlns:inkscape="http://www.inkscape.org/namespaces/inkscape"
   xmlns:sodipodi="http://sodipodi.sourceforge.net/DTD/sodipodi-0.dtd"
   xmlns="http://www.w3.org/2000/svg"
   xmlns:svg="http://www.w3.org/2000/svg">
  <defs
     id="defs99" />
  <sodipodi:namedview
     id="namedview97"
     pagecolor="#ffffff"
     bordercolor="#666666"
     borderopacity="1.0"
     inkscape:pageshadow="2"
     inkscape:pageopacity="0.0"
     inkscape:pagecheckerboard="0"
     showgrid="false"
     inkscape:zoom="2.0895005"
     inkscape:cx="168.7006"
     inkscape:cy="130.41394"
     inkscape:window-width="1466"
     inkscape:window-height="800"
     inkscape:window-x="70"
     inkscape:window-y="27"
     inkscape:window-maximized="1"
     inkscape:current-layer="svg95" />
  <path
     id="path71"
     style="stroke-width:0.25"
     d="M 88 7 L 82 10.5 L 75 14.5 L 68.25 18.5 L 63.75 21 L 57.75 24.5 L 51.25 28.25 L 44.5 32.25 L 37.5 36.25 L 31.5 39.75 L 18.5 47.25 L 8.25 53.25 L 8 53.75 L 8 146 L 9.25 147.25 L 16.25 151.25 L 22.25 154.75 L 35.25 162.25 L 41.25 165.75 L 48.5 170 L 54.25 173.25 L 60.25 176.75 L 73.25 184.25 L 80 188.25 L 87 192.25 L 88.25 193 L 89.5 192.5 L 95.5 189 L 115 177.75 L 121 174.25 L 126.25 171.25 L 132.25 167.75 L 139.25 163.75 L 145.75 160 L 151.75 156.5 L 158.75 152.5 L 165.25 148.75 L 168.5 146.75 L 169 146.25 L 169 124.75 L 168.75 99 L 166.75 97.75 L 161 94.5 L 156.75 92 L 143.75 84.5 L 132.5 78 L 129.75 76.25 L 129.5 76 L 129.5 30.75 L 128.25 29.75 L 123 26.75 L 116.5 23 L 104.5 16 L 98 12.25 L 92 8.75 L 89.5 7.25 L 88 7 z "
     transform="scale(4)" />
  <path
     d="m0 0 5 2 24 14 21 12 24 14 26 15 43 25 2 2 1 18v155l-2 1-25-14-24-14-26-15-27-16-26-15-15-9-2-2v-172z"
     fill="#FEFEFE"
     id="path75"
     transform="translate(45,228)" />
  <path
     d="m0 0 5 1 22 13 52 30 48 28 14 8 5 4v172h-4l-17-10-25-14-15-9-52-30-24-14-9-6-1-12v-160z"
     fill="#FEFEFE"
     id="path77"
     transform="translate(202,320)" />
  <path
     d="m0 0h6l22 13 52 30 24 14 26 15 17 10v4l-15 8-22 13-52 30-48 28-4 2h-6l-11-6-24-14-26-15-41-24-26-15-14-8 5-5 17-10 26-15 24-14 26-15 24-14z"
     fill="#FEFEFE"
     id="path79"
     transform="translate(193,133)" />
  <path
     d="m0 0 5 1 27 15 89 52 23 14v4l-28 16-24 14-28 16-60 35h-6l-17-9-48-28-26-15-24-14-23-13-4-2v-2l15-9 26-15 48-28 52-30z"
     fill="#FEFEFE"
     id="path81"
     transform="translate(352,41)" />
  <path
     d="m0 0 5 1 10 6 24 14 26 15 24 14 21 12 27 16 8 5 1 3-20 11-24 14-78 45-20 12-6-1-48-28-26-15-67-39 4-4 26-15 48-28 26-15 24-14 14-8z"
     fill="#FEFEFE"
     id="path83"
     transform="translate(351,224)" />
  <path
     d="m0 0 5 1 24 14 104 60 12 7 1 2 1 14 1 149h-4l-22-12-72-42-26-15-24-14-1-3z"
     fill="#FEFEFE"
     id="path85"
     transform="translate(44,416)" />
  <path
     d="m0 0 6 2 19 11 24 14 26 15 24 14 26 15 20 12 1 3v162l-5-2-26-15-28-16-24-14-52-30-11-7-1-15v-54z"
     fill="#FEFEFE"
     id="path87"
     transform="translate(202,507)" />
  <path
     d="m0 0h22l15 3 13 5 12 7 10 8 9 9 5 7 1 8-4 15-10 22-8 12-7 9-3 4h-2v2h-2v2h-2l-2 4-11 9-14 9-21 10-21 6-15 2h-19l-8-9-8-13-6-15-3-15v-22l3-15 5-13 5-9 8-11 12-12 14-9 11-5 14-4z"
     fill="#FEFEFE"
     id="path89"
     transform="translate(659,83)" />
  <path
     d="m0 0h19l17 3 14 5 17 9 10 8 9 8 10 13 6 10 5 11 4 14 1 7v28l-3 14-4 12-9 17-11 13-8 8-12 9-16 8-11 4-13 3h-31l-16-4-16-7-10-6-13-11-7-8-8-11-9-17-5-16-2-13v-16l3-19 5-14 9-17 9-11 5-5 10-9 13-8 15-7 16-4zm-1 12-15 3-13 5-11 6-10 8-10 10-8 11-7 15-4 14-1 7v22l3 15 6 15 9 14 7 8h19l15-2 21-6 23-11 16-11 9-8v-2h2v-2h2v-2h2l8-10 10-15 10-22 4-15-1-8-8-10-9-9-10-7-16-8-14-4-7-1z"
     fill="#010101"
     id="path91"
     transform="translate(660,71)" />
  <path
     d="m0 0 5 2 28 16 26 15 24 14 26 15 24 14 6 4-3 3-24 14-26 15-24 14-26 15-21 12-13 8h-3v-160z"
     fill="#FEFEFE"
     id="path93"
     transform="translate(518,319)" />
</svg>
